<?xml version="1.0" encoding="UTF-8" standalone="no"?>
<!-- Generator: Adobe Illustrator 18.0.0, SVG Export Plug-In . SVG Version: 6.00 Build 0)  -->

<svg
   version="1.1"
   id="Layer_1"
   x="0px"
   y="0px"
   viewBox="0 0 100 100"
   enable-background="new 0 0 64 64"
   xml:space="preserve"
   sodipodi:docname="logo.svg"
   width="100"
   height="100"
   inkscape:version="1.1.1 (3bf5ae0d25, 2021-09-20, custom)"
   xmlns:inkscape="http://www.inkscape.org/namespaces/inkscape"
   xmlns:sodipodi="http://sodipodi.sourceforge.net/DTD/sodipodi-0.dtd"
   xmlns="http://www.w3.org/2000/svg"
   xmlns:svg="http://www.w3.org/2000/svg"><defs
   id="defs143">
	
	
	
	
	
	
	
	
	
	
	
	
	
	
	
	
	
</defs><sodipodi:namedview
   id="namedview141"
   pagecolor="#505050"
   bordercolor="#eeeeee"
   borderopacity="1"
   inkscape:pageshadow="0"
   inkscape:pageopacity="0"
   inkscape:pagecheckerboard="0"
   showgrid="false"
   inkscape:zoom="11.234375"
   inkscape:cx="32"
   inkscape:cy="31.955494"
   inkscape:window-width="2560"
   inkscape:window-height="1377"
   inkscape:window-x="0"
   inkscape:window-y="0"
   inkscape:window-maximized="1"
   inkscape:current-layer="Layer_1" />
<g
   id="g1172"
   transform="matrix(2.1691974,0,0,2.1691974,-19.414317,-15.184382)"><g
     id="g16">
		<g
   id="g14">
			<g
   id="g12">
				<path
   fill="#c1c1c1"
   d="M 48,53.1 H 16 c -2.8,0 -5,-2.2 -5,-5 v -25 h 42 v 25 c 0,2.8 -2.3,5 -5,5 z"
   id="path10" />
			</g>
		</g>
	</g><g
     id="g24">
		<g
   id="g22">
			<g
   id="g20">
				<path
   fill="#e5e5e5"
   d="M 48,52.1 H 16 c -2.8,0 -5,-2.2 -5,-5 v -25 h 42 v 25 c 0,2.8 -2.3,5 -5,5 z"
   id="path18" />
			</g>
		</g>
	</g><g
     id="g32">
		<g
   id="g30">
			<g
   id="g28">
				<path
   fill="#ffffff"
   d="M 48,51.1 H 16 c -2.8,0 -5,-2.2 -5,-5 v -25 h 42 v 25 c 0,2.8 -2.3,5 -5,5 z"
   id="path26" />
			</g>
		</g>
	</g><g
     id="g40">
		<g
   id="g38">
			<g
   id="g36">
				<path
   fill="#f44e57"
   d="M 53,24.1 H 11 v -8 c 0,-2.7 2.2,-5 5,-5 h 32 c 2.8,0 5,2.2 5,5 z"
   id="path34" />
			</g>
		</g>
	</g><g
     id="g48">
		<g
   id="g46">
			<g
   id="g44">
				<rect
   x="15"
   y="29.1"
   fill="#e2e2e2"
   width="6.1999998"
   height="6"
   id="rect42" />
			</g>
		</g>
	</g><g
     id="g56">
		<g
   id="g54">
			<g
   id="g52">
				<rect
   x="24.299999"
   y="29.1"
   fill="#e2e2e2"
   width="6.1999998"
   height="6"
   id="rect50" />
			</g>
		</g>
	</g><g
     id="g64">
		<g
   id="g62">
			<g
   id="g60">
				<rect
   x="33.5"
   y="29.1"
   fill="#e2e2e2"
   width="6.1999998"
   height="6"
   id="rect58" />
			</g>
		</g>
	</g><g
     id="g72">
		<g
   id="g70">
			<g
   id="g68">
				<rect
   x="42.799999"
   y="29.1"
   fill="#e2e2e2"
   width="6.1999998"
   height="6"
   id="rect66" />
			</g>
		</g>
	</g><g
     id="g80">
		<g
   id="g78">
			<g
   id="g76">
				<rect
   x="15"
   y="39.099998"
   fill="#e2e2e2"
   width="6.1999998"
   height="6"
   id="rect74" />
			</g>
		</g>
	</g><g
     id="g88">
		<g
   id="g86">
			<g
   id="g84">
				<rect
   x="24.299999"
   y="39.099998"
   fill="#e2e2e2"
   width="6.1999998"
   height="6"
   id="rect82" />
			</g>
		</g>
	</g><g
     id="g96">
		<g
   id="g94">
			<g
   id="g92">
				<rect
   x="33.5"
   y="39.099998"
   fill="#e2e2e2"
   width="6.1999998"
   height="6"
   id="rect90" />
			</g>
		</g>
	</g><g
     id="g104">
		<g
   id="g102">
			<g
   id="g100">
				<rect
   x="42.799999"
   y="39.099998"
   fill="#f44e57"
   width="6.1999998"
   height="6"
   id="rect98" />
			</g>
		</g>
	</g><g
     id="g112">
		<g
   id="g110">
			<g
   id="g108">
				<circle
   fill="#cc404e"
   cx="21.5"
   cy="14.6"
   r="3.5"
   id="circle106" />
			</g>
		</g>
	</g><g
     id="g120">
		<g
   id="g118">
			<g
   id="g116">
				<circle
   fill="#cc404e"
   cx="42.5"
   cy="14.6"
   r="3.5"
   id="circle114" />
			</g>
		</g>
	</g><g
     id="g128">
		<g
   id="g126">
			<g
   id="g124">
				<path
   fill="#e2e2e2"
   d="m 21.4,16.7 v 0 C 20.1,16.7 19,15.6 19,14.3 V 9.6 c 0,-1.3 1.1,-2.4 2.4,-2.4 v 0 c 1.3,0 2.4,1.1 2.4,2.4 v 4.7 c 0.1,1.3 -1,2.4 -2.4,2.4 z"
   id="path122" />
			</g>
		</g>
	</g><g
     id="g136">
		<g
   id="g134">
			<g
   id="g132">
				<path
   fill="#e2e2e2"
   d="m 42.6,16.6 v 0 c -1.3,0 -2.4,-1.1 -2.4,-2.4 V 9.4 C 40.2,8.1 41.3,7 42.6,7 V 7 C 43.9,7 45,8.1 45,9.4 v 4.7 c 0,1.4 -1.1,2.5 -2.4,2.5 z"
   id="path130" />
			</g>
		</g>
	</g></g>
</svg>
